<svg viewBox="0 0 330 200" xmlns="http://www.w3.org/2000/svg"><g><g><g><g><g><line x1="58" y1="178" x2="53" y2="178" style="visibility: inherit;" fill="rgb(0, 0, 0)" stroke="rgb(204, 204, 204)" stroke-width="1px"></line><line x1="58" y1="161.8181818181818" x2="53" y2="161.8181818181818" style="visibility: inherit;" fill="rgb(0, 0, 0)" stroke="rgb(204, 204, 204)" stroke-width="1px"></line><line x1="58" y1="145.63636363636363" x2="53" y2="145.63636363636363" style="visibility: inherit;" fill="rgb(0, 0, 0)" stroke="rgb(204, 204, 204)" stroke-width="1px"></line><line x1="58" y1="129.45454545454547" x2="53" y2="129.45454545454547" style="visibility: inherit;" fill="rgb(0, 0, 0)" stroke="rgb(204, 204, 204)" stroke-width="1px"></line><line x1="58" y1="113.27272727272727" x2="53" y2="113.27272727272727" style="visibility: inherit;" fill="rgb(0, 0, 0)" stroke="rgb(204, 204, 204)" stroke-width="1px"></line><line x1="58" y1="97.0909090909091" x2="53" y2="97.0909090909091" style="visibility: inherit;" fill="rgb(0, 0, 0)" stroke="rgb(204, 204, 204)" stroke-width="1px"></line><line x1="58" y1="80.90909090909092" x2="53" y2="80.90909090909092" style="visibility: inherit;" fill="rgb(0, 0, 0)" stroke="rgb(204, 204, 204)" stroke-width="1px"></line><line x1="58" y1="64.72727272727273" x2="53" y2="64.72727272727273" style="visibility: inherit;" fill="rgb(0, 0, 0)" stroke="rgb(204, 204, 204)" stroke-width="1px"></line><line x1="58" y1="48.54545454545453" x2="53" y2="48.54545454545453" style="visibility: inherit;" fill="rgb(0, 0, 0)" stroke="rgb(204, 204, 204)" stroke-width="1px"></line><line x1="58" y1="32.363636363636346" x2="53" y2="32.363636363636346" style="visibility: inherit;" fill="rgb(0, 0, 0)" stroke="rgb(204, 204, 204)" stroke-width="1px"></line><line x1="58" y1="16.181818181818187" x2="53" y2="16.181818181818187" style="visibility: inherit;" fill="rgb(0, 0, 0)" stroke="rgb(204, 204, 204)" stroke-width="1px"></line><line x1="58" y1="0" x2="53" y2="0" style="visibility: inherit;" fill="rgb(0, 0, 0)" stroke="rgb(204, 204, 204)" stroke-width="1px"></line></g><g transform="translate(48, 0)"><text x="0" y="178" dx="0em" dy="0.3em" style="text-anchor: end; visibility: hidden; font-family: &quot;Helvetica Neue&quot;, sans-serif; font-size: 12px; font-weight: 200;" fill="rgb(50, 49, 63)" stroke="none" stroke-width="1px">-590</text><text x="0" y="161.8181818181818" dx="0em" dy="0.3em" style="text-anchor: end; visibility: inherit; font-family: &quot;Helvetica Neue&quot;, sans-serif; font-size: 12px; font-weight: 200;" fill="rgb(50, 49, 63)" stroke="none" stroke-width="1px">-580</text><text x="0" y="145.63636363636363" dx="0em" dy="0.3em" style="text-anchor: end; visibility: hidden; font-family: &quot;Helvetica Neue&quot;, sans-serif; font-size: 12px; font-weight: 200;" fill="rgb(50, 49, 63)" stroke="none" stroke-width="1px">-570</text><text x="0" y="129.45454545454547" dx="0em" dy="0.3em" style="text-anchor: end; visibility: inherit; font-family: &quot;Helvetica Neue&quot;, sans-serif; font-size: 12px; font-weight: 200;" fill="rgb(50, 49, 63)" stroke="none" stroke-width="1px">-560</text><text x="0" y="113.27272727272727" dx="0em" dy="0.3em" style="text-anchor: end; visibility: hidden; font-family: &quot;Helvetica Neue&quot;, sans-serif; font-size: 12px; font-weight: 200;" fill="rgb(50, 49, 63)" stroke="none" stroke-width="1px">-550</text><text x="0" y="97.0909090909091" dx="0em" dy="0.3em" style="text-anchor: end; visibility: inherit; font-family: &quot;Helvetica Neue&quot;, sans-serif; font-size: 12px; font-weight: 200;" fill="rgb(50, 49, 63)" stroke="none" stroke-width="1px">-540</text><text x="0" y="80.90909090909092" dx="0em" dy="0.3em" style="text-anchor: end; visibility: hidden; font-family: &quot;Helvetica Neue&quot;, sans-serif; font-size: 12px; font-weight: 200;" fill="rgb(50, 49, 63)" stroke="none" stroke-width="1px">-530</text><text x="0" y="64.72727272727273" dx="0em" dy="0.3em" style="text-anchor: end; visibility: inherit; font-family: &quot;Helvetica Neue&quot;, sans-serif; font-size: 12px; font-weight: 200;" fill="rgb(50, 49, 63)" stroke="none" stroke-width="1px">-520</text><text x="0" y="48.54545454545453" dx="0em" dy="0.3em" style="text-anchor: end; visibility: hidden; font-family: &quot;Helvetica Neue&quot;, sans-serif; font-size: 12px; font-weight: 200;" fill="rgb(50, 49, 63)" stroke="none" stroke-width="1px">-510</text><text x="0" y="32.363636363636346" dx="0em" dy="0.3em" style="text-anchor: end; visibility: inherit; font-family: &quot;Helvetica Neue&quot;, sans-serif; font-size: 12px; font-weight: 200;" fill="rgb(50, 49, 63)" stroke="none" stroke-width="1px">-500</text><text x="0" y="16.181818181818187" dx="0em" dy="0.3em" style="text-anchor: end; visibility: hidden; font-family: &quot;Helvetica Neue&quot;, sans-serif; font-size: 12px; font-weight: 200;" fill="rgb(50, 49, 63)" stroke="none" stroke-width="1px">-490</text><text x="0" y="0" dx="0em" dy="0.3em" style="text-anchor: end; visibility: hidden; font-family: &quot;Helvetica Neue&quot;, sans-serif; font-size: 12px; font-weight: 200;" fill="rgb(50, 49, 63)" stroke="none" stroke-width="1px">-480</text></g><line x1="58" y1="0" x2="58" y2="178" fill="rgb(0, 0, 0)" stroke="rgb(204, 204, 204)" stroke-width="1px"></line></g></g><g transform="translate(58, 0)" clip-path="url(#clip_0)"><clipPath id="clip_0"><rect width="272" height="178"></rect></clipPath><g><g><g><line x1="0" y1="0" x2="0" y2="178" fill="rgb(0, 0, 0)" stroke="rgb(60, 60, 60)" stroke-width="1px" opacity="0.25"></line><line x1="22.666666666666664" y1="0" x2="22.666666666666664" y2="178" fill="rgb(0, 0, 0)" stroke="rgb(60, 60, 60)" stroke-width="1px" opacity="0.25"></line><line x1="45.33333333333333" y1="0" x2="45.33333333333333" y2="178" fill="rgb(0, 0, 0)" stroke="rgb(60, 60, 60)" stroke-width="1px" opacity="0.25"></line><line x1="68" y1="0" x2="68" y2="178" fill="rgb(0, 0, 0)" stroke="rgb(60, 60, 60)" stroke-width="1px" opacity="0.25"></line><line x1="90.66666666666666" y1="0" x2="90.66666666666666" y2="178" fill="rgb(0, 0, 0)" stroke="rgb(60, 60, 60)" stroke-width="1px" opacity="0.25"></line><line x1="113.33333333333334" y1="0" x2="113.33333333333334" y2="178" fill="rgb(0, 0, 0)" stroke="rgb(60, 60, 60)" stroke-width="1px" opacity="0.25"></line><line x1="136" y1="0" x2="136" y2="178" fill="rgb(0, 0, 0)" stroke="rgb(60, 60, 60)" stroke-width="1px" opacity="0.25"></line><line x1="158.66666666666669" y1="0" x2="158.66666666666669" y2="178" fill="rgb(0, 0, 0)" stroke="rgb(60, 60, 60)" stroke-width="1px" opacity="0.25"></line><line x1="181.33333333333331" y1="0" x2="181.33333333333331" y2="178" fill="rgb(0, 0, 0)" stroke="rgb(60, 60, 60)" stroke-width="1px" opacity="0.25"></line><line x1="204" y1="0" x2="204" y2="178" fill="rgb(0, 0, 0)" stroke="rgb(60, 60, 60)" stroke-width="1px" opacity="0.25"></line><line x1="226.66666666666669" y1="0" x2="226.66666666666669" y2="178" fill="rgb(0, 0, 0)" stroke="rgb(60, 60, 60)" stroke-width="1px" opacity="0.25"></line><line x1="249.33333333333331" y1="0" x2="249.33333333333331" y2="178" fill="rgb(0, 0, 0)" stroke="rgb(60, 60, 60)" stroke-width="1px" opacity="0.25"></line><line x1="272" y1="0" x2="272" y2="178" fill="rgb(0, 0, 0)" stroke="rgb(60, 60, 60)" stroke-width="1px" opacity="0.25"></line></g><g><line x1="0" y1="178" x2="272" y2="178" fill="rgb(0, 0, 0)" stroke="rgb(60, 60, 60)" stroke-width="1px" opacity="0.25"></line><line x1="0" y1="161.8181818181818" x2="272" y2="161.8181818181818" fill="rgb(0, 0, 0)" stroke="rgb(60, 60, 60)" stroke-width="1px" opacity="0.25"></line><line x1="0" y1="145.63636363636363" x2="272" y2="145.63636363636363" fill="rgb(0, 0, 0)" stroke="rgb(60, 60, 60)" stroke-width="1px" opacity="0.25"></line><line x1="0" y1="129.45454545454547" x2="272" y2="129.45454545454547" fill="rgb(0, 0, 0)" stroke="rgb(60, 60, 60)" stroke-width="1px" opacity="0.25"></line><line x1="0" y1="113.27272727272727" x2="272" y2="113.27272727272727" fill="rgb(0, 0, 0)" stroke="rgb(60, 60, 60)" stroke-width="1px" opacity="0.25"></line><line x1="0" y1="97.0909090909091" x2="272" y2="97.0909090909091" fill="rgb(0, 0, 0)" stroke="rgb(60, 60, 60)" stroke-width="1px" opacity="0.25"></line><line x1="0" y1="80.90909090909092" x2="272" y2="80.90909090909092" fill="rgb(0, 0, 0)" stroke="rgb(60, 60, 60)" stroke-width="1px" opacity="0.25"></line><line x1="0" y1="64.72727272727273" x2="272" y2="64.72727272727273" fill="rgb(0, 0, 0)" stroke="rgb(60, 60, 60)" stroke-width="1px" opacity="0.25"></line><line x1="0" y1="48.54545454545453" x2="272" y2="48.54545454545453" fill="rgb(0, 0, 0)" stroke="rgb(60, 60, 60)" stroke-width="1px" opacity="0.25"></line><line x1="0" y1="32.363636363636346" x2="272" y2="32.363636363636346" fill="rgb(0, 0, 0)" stroke="rgb(60, 60, 60)" stroke-width="1px" opacity="0.25"></line><line x1="0" y1="16.181818181818187" x2="272" y2="16.181818181818187" fill="rgb(0, 0, 0)" stroke="rgb(60, 60, 60)" stroke-width="1px" opacity="0.25"></line><line x1="0" y1="0" x2="272" y2="0" fill="rgb(0, 0, 0)" stroke="rgb(60, 60, 60)" stroke-width="1px" opacity="0.25"></line></g></g></g><g><g><line x1="0" y1="-776.7272727272726" x2="272" y2="-776.7272727272726" fill="rgb(0, 0, 0)" stroke="rgb(153, 153, 153)" stroke-width="1.5px"></line></g></g><g><g><line x1="22.666666666666664" y1="0" x2="22.666666666666664" y2="178" fill="rgb(0, 0, 0)" stroke="rgb(153, 153, 153)" stroke-width="1.5px"></line></g></g><g><g><g><g><g><path stroke="rgb(255, 112, 67)" stroke-width="2px" d="M22.893333333333334,29.36663208007812L23.12,29.96777739091354L23.573333333333334,31.578843901285637L23.799999999999997,32.3670871816216L24.026666666666667,32.516635250625484L24.253333333333334,32.07084216235282L24.48,32.04247354219447L24.706666666666667,32.43417095918181L24.93333333333333,31.87951519607114L25.16,31.934612091720396L25.386666666666667,32.48041141702683L25.613333333333333,32.70084938745768L25.84,32.64015692640831L26.06666666666667,32.64631466845293L26.293333333333333,32.11466018520193L26.52,32.04623041961344L26.746666666666666,32.07293009357414L26.973333333333333,31.82705228757507L27.200000000000003,32.92580715969504L27.426666666666666,33.32254691914892L27.653333333333332,33.55676904067383L27.88,33.54047633779791L28.106666666666666,32.76768812480756L28.333333333333336,31.962464972072155L28.56,32.30016016349097L28.78666666666667,32.09734162392712L29.013333333333335,32.40044363685112L29.46666666666667,31.95705634839433L29.69333333333333,31.56278635375105L29.92,32.33270926939235L30.14666666666667,31.21444652480983L30.37333333333333,31.32069828555808L30.6,31.434444678115824L30.826666666666664,32.79583552485215L31.053333333333335,32.79783090478929L31.28,33.112708888806026L31.506666666666664,32.12884891561819L31.733333333333334,32.31781627478847L31.959999999999997,32.723385966060704L32.413333333333334,32.43534705332806L32.64,32.1552440982494L32.86666666666667,33.43874593577479L33.093333333333334,33.15890540939549L33.32,33.78727217862968L33.54666666666667,33.561266671855975L33.77333333333333,32.83749220299737L34,33.86753194293075L34.22666666666667,33.12270378044346L34.45333333333333,33.01919644262543L34.68,32.045264758323185L34.906666666666666,32.57261561991115L35.13333333333334,32.25309174410481L35.36,32.9285229708249L35.586666666666666,33.0848519305774L35.81333333333333,32.37376582809026L36.04,32.51764572732307L36.266666666666666,32.965575673254676L36.49333333333333,34.009468805941594L36.72,34.38464279812473L36.946666666666665,33.83180707447127L37.17333333333333,33.06889337110317L37.400000000000006,32.97353728331527L37.626666666666665,34.078957242148334L37.85333333333333,34.331164961411275L38.080000000000005,33.73293481669049L38.306666666666665,33.310114893920655L38.53333333333333,33.13828018457676L38.76,32.35732868425461L38.98666666666667,31.90017513136246L39.21333333333333,32.01486293570676L39.44,32.934090213483756L39.66666666666667,32.798274618147076L39.89333333333333,33.39712483835996L40.12,32.16691503973462L40.34666666666667,32.916027042306666L40.57333333333334,33.37446219484417L40.8,32.769577663142286L41.02666666666667,32.21681873034274L41.25333333333334,31.465032644455647L41.48,31.7796343771563L41.70666666666666,32.964509585810816L41.93333333333334,33.27819793898644L42.16,32.44283983938621L42.38666666666666,32.66565862664308L42.61333333333334,32.86562187165353L42.84,32.55343939607445L43.06666666666666,32.89593038125264L43.29333333333334,33.146422752899355L43.52,31.987101032776536L43.74666666666666,32.05494927378521L43.97333333333333,32.950003699569436L44.2,33.242234996730275L44.42666666666666,33.52360893127684L44.65333333333333,32.75571698341096L44.88,32.59898350148123L45.10666666666667,33.73827371239446L45.33333333333333,33.78370108823208L45.56,32.75106027474331L45.78666666666667,33.93964384417836L46.01333333333333,34.14659858456099L46.24,34.79176197389003L46.46666666666667,33.76028423511531L46.693333333333335,33.8278804132282L46.919999999999995,33.005045675138604L47.14666666666667,32.41352700558028L47.373333333333335,32.776091389782806L47.599999999999994,32.19613423727881L47.82666666666667,32.28535743334734L48.053333333333335,31.51700037087491L48.28,32.44953460640275L48.50666666666667,32.2430262059581L48.733333333333334,31.77047725589017L48.96,32.7701352526818L49.18666666666667,32.34825524606924L49.413333333333334,32.45042797896261L49.64,32.79825172700828L49.86666666666666,31.606345611844176L50.093333333333334,32.35700760680825L50.32,32.635907555917356L50.54666666666667,32.898141879076064L50.77333333333333,31.57261004754514L51,32.19106669436516L51.22666666666667,31.861889883451482L51.45333333333333,32.4473214744601L51.68,32.06595414177832L52.13333333333334,31.930092282652197L52.36,30.56019270979013L52.586666666666666,31.888980949027513L52.81333333333333,33.02897184356419L53.04,33.09141231423513L53.266666666666666,33.830984196069494L53.49333333333333,33.514150265511006L53.72,33.431941863852046L53.946666666666665,33.5682968654703L54.17333333333333,33.669981581640116L54.400000000000006,33.51032945857219L54.626666666666665,32.669822941478515L54.85333333333333,32.35566329613712L55.080000000000005,32.861077532014605L55.306666666666665,32.19080956075709L55.53333333333333,31.654346798244006L55.76,32.270726198619684L55.98666666666667,31.97647114175706L56.21333333333333,31.267075644926365L56.44,31.041143158617757L56.66666666666667,32.000562581960395L56.89333333333333,32.897401203295516L57.12,31.734181355855185L57.57333333333334,30.84983853652446L57.8,31.299070380437428L58.02666666666667,32.30155182520849L58.25333333333334,32.22455791508247L58.48,31.801253303736985L58.70666666666666,33.33120142293822L58.93333333333334,33.9955392575271L59.16,33.67670587873499L59.38666666666666,32.46781995834894L59.61333333333334,32.18715260178493L59.84,32.1418343522642L60.06666666666666,32.24560709218244L60.29333333333334,32.146921694940175L60.52,31.94303804892428L60.74666666666666,32.40771358752218L60.97333333333333,32.72337837445937L61.2,33.621778711465424L61.42666666666666,32.859201814947454L61.65333333333333,33.01943688264751L61.88,33.437772303594215L62.10666666666667,32.669765432937794L62.33333333333333,32.34448798845585L62.56,33.476439996553694L62.78666666666667,32.636017584579974L63.01333333333333,32.45188443214002L63.24,31.76030502007947L63.46666666666667,31.20335164663578L63.693333333333335,30.936459008222897L63.919999999999995,31.935105163456456L64.14666666666668,31.927059857661902L64.37333333333333,32.9080554280915L64.6,32.33289322667022L64.82666666666667,31.642035962635703L65.05333333333333,31.551039448675198L65.28,31.5275725772307L65.50666666666667,31.18892769051459L65.73333333333333,31.810693483981993L65.96,32.504426344295524L66.18666666666667,32.02278453527043L66.41333333333334,32.77826944275316L66.64,33.35484008362059L66.86666666666666,33.6482784731127L67.54666666666667,32.83490391802954L67.77333333333334,32.50437141686885L68,33.124940410490666L68.22666666666667,31.90047294657853L68.45333333333333,32.430964920290876L68.68,32.04794263292732L68.90666666666667,31.834445400424073L69.36,32.26818721539652L69.58666666666667,32.08718541162423L69.81333333333333,31.528211460042797L70.04,31.59934786324166L70.26666666666668,32.268186265885305L70.72,31.58519687139193L70.94666666666666,31.64385027837497L71.17333333333333,32.543718725263574L71.4,32.576357966337184L71.62666666666667,31.88970549358075L71.85333333333332,31.371580087696827L72.08,32.256464565402126L72.30666666666666,32.78073842496573L72.53333333333333,32.65518178012147L72.76,30.771304424962153L72.98666666666666,31.46909679737783L73.21333333333334,33.15403109866813L73.44,31.329143845635514L73.89333333333333,32.20972862804891L74.12,31.744711022710078L74.34666666666666,31.728141421864706L74.57333333333334,31.553714798076186L74.80000000000001,31.886829154058688L75.02666666666666,32.99163118384146L75.25333333333333,31.730017772804928L75.48,31.885963433569316L75.70666666666666,32.13038598805349L75.93333333333334,32.22074291207926L76.16000000000001,32.10108943510269L76.38666666666667,31.911232496288903L76.61333333333333,31.881585467233606L76.83999999999999,30.523819444402676L77.06666666666666,31.456369525306428L77.29333333333334,31.75574998222939L77.52,31.663495266326265L77.74666666666667,31.631530220875277L77.97333333333334,31.320458215976885L78.19999999999999,32.13121313981341L78.42666666666666,32.419264993263056L78.65333333333334,33.792418814849924L78.88,33.79799545616848L79.10666666666667,32.780377751328984L79.33333333333334,32.971569601791685L79.56,32.72586789743863L79.78666666666666,32.80851234890358L80.01333333333334,33.549994216870545L80.24,31.771522852920697L80.46666666666667,31.493718488030794L80.69333333333334,30.616335629395167L80.92,32.21659425760865L81.14666666666668,31.775991044977133L81.37333333333333,32.114555919599866L81.6,32.516787307086645L81.82666666666667,32.60689567082878L82.05333333333334,33.78661631762503L82.28,31.026498599168747L82.50666666666667,31.5075064925978L82.73333333333332,31.666115445629714L82.96,30.75017397263349L83.41333333333333,31.58339207001484L83.64,32.84281356232145L83.86666666666667,32.85491665301791L84.09333333333333,32.324219966952825L84.32,31.88108027562629L84.54666666666667,31.98845285287578L84.77333333333333,32.730648061157325L85,32.26941200785919L85.22666666666667,32.89849268589455L85.45333333333333,32.88415620280091L85.68,33.21499323339927L85.90666666666667,32.64136277242591L86.13333333333333,32.72638193902381L86.36,32.881571794806376L86.58666666666667,32.213496299540054L86.81333333333333,32.007002698047955L87.04,30.81250306591687L87.26666666666668,32.13154791554442L87.49333333333333,31.76644495138632L87.72,31.13590434654202L87.94666666666666,31.70883464450199L88.4,32.27997186269545L88.85333333333332,32.32444019325649L89.08,33.09435494514415L89.30666666666666,31.987228423407572L89.53333333333333,32.10527783884572L89.76,33.20339220046654L89.98666666666666,32.94359893000998L90.21333333333334,32.11830690772183L90.44,31.570153622616033L90.66666666666666,31.95978415687935L90.89333333333333,32.56662133752252L91.12,32.49799038063853L91.34666666666666,32.11857783101098L91.57333333333334,31.44417226678837L91.80000000000001,31.80376032917809L92.02666666666666,31.476320029182943L92.48,33.06590032716886L92.70666666666666,31.80023866043487L92.93333333333334,32.89876801870403L93.16000000000001,32.202520088566246L93.38666666666667,32.01633804745791L93.83999999999999,32.04906419211116L94.06666666666666,31.443945795096283L94.29333333333334,31.574368853123076L94.52,31.643180660240375L94.74666666666667,31.56663993023514L94.97333333333334,31.829240660910926L95.19999999999999,30.12340310570849L95.42666666666666,30.04558483217508L95.65333333333334,30.821910780341966L95.88,30.714626626230796L96.10666666666667,32.09624934221577L96.33333333333334,31.41963437095444L96.56,32.70131919679133L96.78666666666666,31.556363916867355L97.01333333333334,30.9983988721375L97.24,31.57844961270004L97.46666666666667,31.559110117406988L97.69333333333334,30.862327309790828L97.92,30.823835039993753L98.14666666666668,31.2288902019082L98.37333333333333,32.60741601922723L98.6,32.93574355684888L98.82666666666667,32.4470078794929L99.05333333333334,31.63279568117585L99.28,32.85584329116287L99.50666666666667,32.00104082022324L99.73333333333332,33.38243157665099L99.96,33.02135325529454L100.18666666666667,32.66896229941244L100.41333333333333,33.46361725890887L100.64,33.31423392068629L100.86666666666667,33.58241331050837L101.09333333333333,32.17400853318003L101.32,31.367247360675066L101.54666666666667,31.509801541404983L101.77333333333333,32.55597147882034L102,33.14661644553081L102.22666666666667,32.533689416324165L102.45333333333333,33.701309619254744L102.68,32.37133220266088L102.90666666666667,32.53823011882665L103.13333333333333,33.6188780127022L103.36,32.46907405549064L103.58666666666667,32.37121471916089L103.81333333333333,31.967865106354594L104.04,31.817115104295652L104.26666666666668,31.79327288004893L104.49333333333333,32.649747685770876L104.72,32.33154893994265L104.94666666666666,32.95234777660758L105.17333333333333,32.34153273379121L105.4,32.499945386013394L105.62666666666667,33.495699209590924L105.85333333333332,32.97871569052728L106.08,33.15281468597826L106.30666666666666,32.46740303388813L106.76,31.31829515840107L106.98666666666666,32.54575958793836L107.21333333333334,33.300075381669274L107.44,32.83574125172888L107.66666666666666,32.75909744990099L107.89333333333333,32.32371641560826L108.12,31.722100721168886L108.34666666666666,31.145722701877474L108.57333333333334,31.81629659165202L108.80000000000001,31.438448942207145L109.02666666666666,32.73569942569361L109.25333333333333,32.783714799237146L109.48,32.41406255319285L109.70666666666666,31.962482276233857L109.93333333333334,32.14773417220337L110.16000000000001,31.21504741916013L110.38666666666667,32.63579203459267L110.61333333333333,32.58994246152267L110.83999999999999,30.917643344456252L111.06666666666666,31.894719307455006L111.29333333333334,32.40070764981388L111.52,32.13702837184857L111.74666666666667,32.393539155566515L111.97333333333334,33.33162775470356L112.42666666666666,32.080702948986925L112.65333333333334,32.06008791818482L112.88,32.210544494518814L113.10666666666667,32.215998216597626L113.33333333333334,32.728843647643316L113.56,32.874456179708176L113.78666666666666,32.356249968478295L114.01333333333334,33.08916413236537L114.24,31.88426152984539L114.46666666666667,31.33038757309197L114.69333333333334,31.866868019707454L114.92,32.79521891196643L115.14666666666668,32.26049005634172L115.37333333333333,33.25614399829368L115.6,33.00752673100746L115.82666666666667,33.3509418198544L116.05333333333334,32.41012031208302L116.28,32.73649654804518L116.50666666666667,32.15951800162546L116.73333333333332,32.62583908577642L116.96,31.969508023553942L117.18666666666667,32.204414109231834L117.64,32.8955040230675L117.86666666666667,32.60471208180928L118.09333333333333,32.09204244794924L118.32,31.60656313744849L118.54666666666667,31.69874434553728L118.77333333333333,31.261961451072295L119,32.12521153861218L119.22666666666667,31.725803414644588L119.45333333333333,33.638269246940155L119.68,33.64148560711297L119.90666666666667,32.899845865333106L120.13333333333333,33.02094911188448L120.36,33.13264337515622L120.81333333333333,31.605201703360734L121.26666666666668,31.937020169743676L121.49333333333333,31.143236604687132L121.72,32.16684639285489L121.94666666666666,32.619806433014105L122.17333333333333,33.811232004339644L122.4,33.595731567660636L122.62666666666667,32.94913460820996L122.85333333333332,33.0876583661333L123.08,31.94024727465157L123.30666666666666,31.699032730913075L123.53333333333333,31.6738701001955L123.76,32.435527448966724L123.98666666666666,32.374277007377174L124.21333333333334,31.916586135179102L124.44,32.98151484694549L124.66666666666666,32.26380281796841L124.89333333333333,32.328901807968634L125.12,32.61181440686923L125.34666666666666,32.38033504859601L125.57333333333334,32.05462170564908L125.80000000000001,32.866270892707604L126.02666666666666,33.197190403167156L126.25333333333333,32.50058652528091L126.48,33.02133557994128L126.70666666666666,32.07193109760959L126.93333333333334,31.81029999379294L127.16000000000001,32.9750274305797L127.38666666666667,31.26344064158647L127.61333333333333,31.465275633176333L127.83999999999999,31.343432070246678L128.06666666666666,32.321788556778614L128.29333333333335,32.232907340388095L128.51999999999998,32.5593535572869L128.74666666666667,33.18898171888921L128.97333333333333,32.1740002706801L129.2,32.82409986943935L129.42666666666668,32.87967876044209L129.65333333333334,33.78755934255787L129.88,31.96123256043532L130.10666666666665,31.106702027383392L130.33333333333334,30.250949705421533L130.56,30.760062010752904L130.78666666666666,30.855177609505716L131.01333333333335,32.12357220845908L131.24,33.043464170245954L131.46666666666667,33.57299922302832L131.69333333333333,32.389615629342586L131.92,32.80334479486413L132.14666666666668,32.28626446747245L132.37333333333333,32.462656008253276L132.6,33.70955405417064L132.82666666666668,32.058311667232516L133.05333333333334,32.8805540724276L133.28,32.76530354608434L133.50666666666666,30.83295276863072L133.73333333333332,31.78387499924665L133.96,31.768232492445748L134.18666666666667,30.700925068975977L134.41333333333333,31.17900608009296L134.64,31.985225469788702L135.09333333333333,31.359341070225497L135.32,31.700239097035848L135.54666666666668,31.86645671283796L135.77333333333334,32.52792867081354L136.22666666666666,32.31157387507335L136.45333333333335,32.241356390029836L136.90666666666667,32.91709654886165L137.13333333333333,32.922577931092576L137.36,32.975467035644215L137.58666666666667,33.90934871392918L137.81333333333333,33.6770214709002L138.04,32.77139865136115L138.26666666666665,32.403235808359284L138.49333333333334,33.11308894595308L138.72,32.72473458206045L138.9466666666667,32.549796360031706L139.17333333333335,32.68179276630309L139.39999999999998,32.4685840493415L139.62666666666667,32.11211434118155L139.85333333333332,33.13624432381408L140.08,32.64067170970043L140.30666666666667,31.86725636388843L140.53333333333336,31.97221772103191L140.76,32.676758588940146L140.98666666666665,33.70847414306576L141.21333333333334,32.96271565593898L141.44,33.00735218298098L141.66666666666669,32.598161309788566L141.89333333333332,33.332642346952724L142.12,32.37899236839894L143.02666666666667,32.928448111025205L143.25333333333333,33.56305164360387L143.48,33.4465665596708L143.70666666666665,32.43790486833089L143.93333333333334,33.13570767597008L144.16,31.733539751178597L144.38666666666668,33.242790310224194L144.61333333333332,32.96344518222824L144.84,33.02456036217785L145.06666666666666,32.215871693159016L145.29333333333335,31.56417855566812L145.52,33.490311332619626L145.74666666666667,33.57655296612003L145.97333333333333,32.65057400268344L146.2,33.32677617540264L146.42666666666668,34.06344252519901L146.65333333333334,33.23930197641198L146.88,35.06785275900063L147.10666666666668,35.65635818416459L147.56,35.13621214949015L147.78666666666666,34.94394741575948L148.01333333333335,34.61871086777953L148.24,35.678924052627934L148.46666666666664,35.572746610198976L148.69333333333333,35.774444086502854L149.14666666666668,36.357312048492645L149.37333333333333,37.05524216517509L149.60000000000002,37.87724197879257L149.82666666666665,37.31473230552831L150.0533333333333,36.36683299127159L150.28,36.16012997942201L150.50666666666666,37.1029585363037L150.73333333333335,37.268218880660044L150.96,37.94199555957505L151.18666666666667,37.73096926401203L151.41333333333333,38.26679666849239L151.64,39.16492840947609L151.86666666666667,39.9166283880152L152.09333333333333,40.723146643959666L152.32000000000002,39.90858125697244L152.54666666666665,41.226745877762966L152.77333333333334,41.65232904299302L153,41.81007840058274L153.22666666666666,41.87458463800584L153.45333333333335,42.447434554110345L153.67999999999998,42.599597761940686L153.90666666666667,42.83045201653937L154.13333333333333,42.939789098773105L154.36,43.547083242644504L154.58666666666667,43.42882989054405L154.81333333333333,43.13464701103095L155.04,43.94447362032594L155.26666666666665,44.988891203445604L155.49333333333334,45.43337777959579L155.72,46.96304957258701L155.9466666666667,46.90850157416301L156.17333333333335,46.3474537942848L156.39999999999998,47.31629409830384L156.62666666666667,48.258074354933996L156.85333333333332,48.29691736686664L157.30666666666667,49.738838452790475L157.53333333333336,50.521738796106035L157.76,50.33134694421187L157.98666666666665,50.82462137675438L158.21333333333334,50.59546707321168L158.44,51.71609505216561L158.66666666666669,52.36860012433911L158.89333333333332,53.21332049718866L159.12,54.17605648510296L159.34666666666666,54.26275214390277L159.57333333333332,55.85034349159726L159.8,56.69362361981635L160.02666666666667,57.921926568906954L160.25333333333333,57.86494837742369L160.48,58.3614903332725L160.70666666666665,58.71729237112831L161.16,60.669844971682565L161.38666666666668,61.78286756539586L161.61333333333332,63.41443955557277L161.84,63.41536250820165L162.06666666666666,63.88177565477896L162.29333333333335,64.39048407184461L162.52,64.96348344736818L162.74666666666667,66.3508839249551L162.97333333333333,66.898957201564L163.2,67.54962023713146L163.42666666666668,68.14572784185268L163.65333333333334,69.6267566624979L163.88,70.00064517292502L164.10666666666668,71.60466000858459L164.33333333333331,71.95705071040655L164.56,73.64780198164165L164.78666666666666,73.29521306043382L165.01333333333335,74.79306178512385L165.24,75.37832730544935L165.46666666666664,76.53498244505931L165.69333333333333,76.0262429293935L165.92,77.01364836772136L166.14666666666668,77.81164338853054L166.37333333333333,78.67590426820362L166.60000000000002,79.48957354458695L166.82666666666665,80.65226774180891L167.0533333333333,81.94678633755687L167.28,82.60051409656818L167.50666666666666,82.78964839046927L167.73333333333335,83.44092948172482L167.96,84.27337959954633L168.18666666666667,85.07262417308007L168.41333333333333,86.61034962813774L168.64,87.45630299421212L168.86666666666667,87.95569719070345L169.09333333333333,88.77531684070047L169.32000000000002,90.11659457885222L169.54666666666665,89.74102874660103L169.77333333333334,90.99275423304584L170,91.2454163892594L170.22666666666666,92.27539880372602L170.45333333333335,93.53975233266179L170.67999999999998,94.25182592019362L170.90666666666667,95.22579903222982L171.13333333333333,95.43293636180941L171.36,96.4779152261765L171.81333333333333,97.20362901851844L172.04,97.06455534079849L172.26666666666665,98.06307269311546L172.49333333333334,98.67028191487492L172.72,99.20286517165226L172.9466666666667,100.02059072941174L173.17333333333335,100.85896132685158L173.39999999999998,101.51969320236095L173.62666666666667,101.59281201516657L173.85333333333332,102.45821872543517L174.08,102.50706014151118L174.30666666666667,102.99175517226463L174.53333333333336,103.66408541869964L174.76,104.19504970647543L174.98666666666665,105.82287011152742L175.44,105.99857025583684L175.66666666666669,106.15511161372933L175.89333333333332,106.21596957832294L176.12,107.47832819585733L176.34666666666666,107.25977745728709L176.57333333333332,107.7635147343154L176.8,108.04244832922552L177.02666666666667,108.69585562750697L177.25333333333333,109.5671915547712L177.48,109.84347322476609L177.70666666666665,110.16244801511537L177.93333333333334,110.64511351787604L178.16,110.71553135646415L178.38666666666668,112.12995757453182L178.61333333333332,112.11974434230447L178.84,112.43602806845091L179.06666666666666,112.88946396465019L179.29333333333335,113.82728722111973L179.52,113.79971617145021L179.74666666666667,114.75755919505752L179.97333333333333,114.55394957953436L180.2,114.63148862201038L180.42666666666668,115.07414264053574L180.65333333333334,116.14487532153731L180.88,116.16311393582019L181.10666666666668,116.95004165694658L181.33333333333331,116.53788721007712L181.78666666666666,117.57660661581896L182.01333333333335,118.26842135585498L182.24,118.13524049106972L182.46666666666664,118.37106705742589L182.69333333333333,118.59860791911458L182.92,118.78692531609957L183.14666666666668,118.70443812644945L183.37333333333333,119.2996506244493L183.60000000000002,119.33282570847639L183.82666666666665,119.73045137323925L184.0533333333333,119.85595947806287L184.28,119.58111918825821L184.50666666666666,119.10229722318212L184.73333333333335,119.07977588362516L184.96,120.2454893760557L185.18666666666667,120.80427471583229L185.41333333333333,121.54452594455626L185.64,122.07404999500079L185.86666666666667,122.49203164827881L186.09333333333333,122.49823656709225L186.32000000000002,122.31766219948824L186.54666666666665,123.20464162011908L186.77333333333334,123.27100940388974L187,123.95766823111218L187.22666666666666,123.61536798412178L187.45333333333335,123.71015740268905L187.67999999999998,123.7035442818123L187.90666666666667,124.02984984678628L188.13333333333333,124.45070110125361L188.36,125.3132300535079L188.58666666666667,125.37243377074098L188.81333333333333,125.74620972977411L189.04,126.0934191972395L189.26666666666665,125.60129654675276L189.49333333333334,125.16415550262548L189.72,124.78955420356397L189.9466666666667,125.21321183676895L190.17333333333335,125.06689061413519L190.39999999999998,125.24047217032773L190.62666666666667,126.15916389523649L190.85333333333332,126.55057557435777L191.08,126.64015757827931L191.30666666666667,126.80104811585967L191.53333333333336,126.72920619551002L191.76,127.14224184585728L191.98666666666665,127.23255125098028L192.21333333333334,127.89999461777572L192.44,128.1878674205234L192.66666666666669,128.17807157092204L193.12,128.08156639780896L193.34666666666666,127.95432957590135L193.57333333333332,128.27273535207496L193.8,128.38330429718258L194.02666666666667,128.44466785884924L194.25333333333333,128.84265343192894L194.48,128.9228661181063L194.70666666666665,128.55720377952846L194.93333333333334,128.88761683447837L195.16,128.75420850622686L195.38666666666668,129.3497228132532L195.61333333333332,129.53423043866223L195.84,129.77581969075422L196.06666666666666,129.48912640252075L196.29333333333335,129.94348427546132L196.52,129.32977309368582L196.74666666666667,130.34118860763192L196.97333333333333,130.319096154636L197.2,130.1630645819861L197.42666666666668,129.80060464052693L197.65333333333334,129.56914341286736L197.88,129.69488049019205L198.10666666666668,129.88339003062103L198.33333333333331,130.26916887277594L198.56,130.2846152263645L198.78666666666666,130.39418976792098L199.01333333333335,130.36425001132085L199.24,130.273515383213L199.69333333333333,130.89510798703003L199.92,131.42150637602492L200.14666666666668,131.65746348470577L200.37333333333333,131.14892056241445L200.60000000000002,130.54082028844306L200.82666666666665,130.45436166880447L201.0533333333333,131.36138564474868L201.28,131.54470913897984L201.50666666666666,132.04340662685385L201.73333333333335,131.91544250239068L201.96,131.95611653126394L202.18666666666667,131.7415862894969L202.41333333333333,131.96111699031746L202.64,131.855876071321L202.86666666666667,132.08938501779264L203.09333333333333,132.32703166763582L203.32000000000002,132.128244923877L203.54666666666665,131.70611687620112L203.77333333333334,132.06574221378878L204,131.88443866989252L204.22666666666666,131.48943273318554L204.45333333333335,131.557141973008L204.67999999999998,131.86759617457187L204.90666666666667,132.25305992420334L205.13333333333333,132.49326661858447L205.36,133.00428649813924L205.58666666666667,132.6610577831165L205.81333333333333,132.95163688933016L206.04,133.13665107891052L206.26666666666665,133.01923363385202L206.49333333333334,132.8936322435214L206.72,133.00975889156723L207.17333333333335,132.90094500113344L207.39999999999998,132.87302971374825L207.62666666666667,132.97993554841935L207.85333333333332,133.0493333993641L208.08,132.92457118663546L208.30666666666667,133.15778470416885L208.53333333333336,133.07351403983094L208.76,133.14269551551797L208.98666666666665,132.97418842081652L209.21333333333334,133.64768599283082L209.44,133.66225151047118L209.66666666666669,133.70176630045884L209.89333333333332,134.2806585018663L210.12,133.8584883184494L210.34666666666666,133.96366720981968L210.57333333333332,133.69365664691463L210.8,133.78567641002385L211.02666666666667,134.14915664502004L211.25333333333333,134.6667427441143L211.48,134.7553474930595L211.70666666666665,134.56400528205728L211.93333333333334,134.49957060531392L212.16,135.0251795968531L212.38666666666668,135.1328993951858L212.61333333333332,135.1306469524523L212.84,135.66677995059086L213.06666666666666,135.737396628025L213.29333333333335,135.60546443278082L213.52,135.50706550270834L213.74666666666667,135.2209434031876L213.97333333333333,134.96350176634448L214.2,135.37144978139767L214.42666666666668,135.10804786954887L214.65333333333334,135.2988086578089L214.88,135.54225350079315L215.10666666666668,135.42623500175443L215.33333333333331,135.22807010261525L215.56,135.6415988087282L216.01333333333335,135.85574053523695L216.24,135.5102278793808L216.46666666666664,135.82203427734433L216.69333333333333,136.0448318945316L216.92,135.54170693146318L217.14666666666668,135.50839640674727L217.37333333333333,136.25266124603692L217.60000000000002,136.30877847702567L218.0533333333333,136.91446186604486L218.28,136.20238938880306L218.50666666666666,135.93060355515684L218.73333333333335,136.10740554573607L218.96,136.76483794746997L219.41333333333333,136.4585330064081L219.64,136.3569628436175L219.86666666666667,136.96668125730696L220.09333333333333,136.9854486514013L220.32000000000002,136.7959376034828L220.54666666666665,136.9967413618056L220.77333333333334,137.031731784413L221,137.29098908840353L221.22666666666666,136.81270291682048L221.45333333333335,136.97590655122858L221.67999999999998,137.14731062107802L221.90666666666667,137.32647941241947L222.13333333333333,137.04456618083233L222.36,136.7406619386131L222.58666666666667,136.93596099484398L222.81333333333333,137.08952581565634L223.04,137.26628739990514L223.26666666666665,137.55415276664752L223.49333333333334,137.31023757618163L223.72,136.96177376019762L223.9466666666667,137.33229374830614L224.17333333333335,137.21951252384162L224.39999999999998,137.83451424370833L224.62666666666667,137.91590874153758L224.85333333333332,137.7115884800078L225.08,137.77688872365803L225.30666666666667,137.96595612126868L225.53333333333336,137.6661992054316L225.76,137.88176453391242L225.98666666666665,137.94224408966556L226.21333333333334,137.87352383306077L226.44,138.1390588133308L226.66666666666669,138.03558328160642L226.89333333333332,138.3138850364354L227.12,138.59104941674764L227.34666666666666,138.24506865928157L227.57333333333332,137.95056614230197L227.8,138.06336747302316L228.02666666666667,138.1377643581036L228.25333333333333,138.2660375211122L228.48,138.6610278748833L228.70666666666665,138.636450265413L228.93333333333334,138.9083620804125L229.16,138.94180968432713L229.38666666666668,138.8642184455395L229.61333333333332,138.49655574772146L229.84,138.82327968442831L230.06666666666666,138.92042954716277L230.29333333333335,138.8822843618204L230.74666666666667,138.86378246013197L230.97333333333333,138.67059635818146L231.2,139.10765566647146L231.42666666666668,139.08678844604756L231.88,139.01113689930474L232.10666666666668,138.9371433434181L232.33333333333331,139.15131654582353L232.56,139.04847103544856L232.78666666666666,139.1100631787975L233.01333333333335,138.87481942361376L233.24,139.17310276922507L233.46666666666664,139.50223657275663L233.69333333333333,139.12857294507438L234.14666666666668,139.09918078764127L234.37333333333333,139.37128537244274L234.60000000000002,139.61980291735765L234.82666666666665,139.25145872129522L235.0533333333333,139.3231155559306L235.28,139.0105126219106L235.50666666666666,139.1395155809588L235.73333333333335,139.07935609928558L235.96,139.21819471425886L236.18666666666667,139.31884118935085L236.64,139.74383356659342L236.86666666666667,139.63023435515495L237.09333333333333,139.3567206024395L237.32000000000002,139.2850968145887L237.54666666666665,139.3720985717077L238,139.76654350026894L238.22666666666666,139.80595504192274L238.45333333333335,139.84350821691496L238.90666666666667,140.06080663469453L239.13333333333333,139.45976434303267L239.36,139.87113337499574L239.58666666666667,140.19048852996914L239.81333333333333,140.16493498587926L240.04,139.9840710767548L240.26666666666665,139.7884806432118L240.49333333333334,139.82046054501808L240.72,139.95101700527792L240.9466666666667,139.90802675146216L241.17333333333335,139.74352565670114L241.39999999999998,139.63723977257172L241.62666666666667,139.9124330858441L241.85333333333332,139.89826906670535L242.08,140.07213216090378L242.30666666666667,140.1692993604628L242.53333333333336,140.26449865036864L242.76,140.20444226550515L242.98666666666665,139.96566163060993L243.21333333333334,140.01127331004216L243.44,140.30815292423551L243.66666666666669,140.5067845102232L243.89333333333332,140.49444668269655L244.12,140.6042989577714L244.34666666666666,140.61549396983327L244.57333333333332,140.77336243303637L244.8,140.18418835825938L245.02666666666667,140.2364145596999L245.25333333333333,140.37805212715517L245.48,140.22374445100908L245.70666666666665,139.93354887230993L245.93333333333334,139.95336840364166L246.16,139.72075506207145L246.38666666666668,140.0078165848281L246.61333333333332,140.19696223427746L246.84,140.3032989669869L247.06666666666666,140.62432712522047L247.29333333333335,140.56856733337088L247.52,140.36317964007938L247.74666666666667,140.07536339484315L247.97333333333333,140.42044442184908L248.2,140.0603392738481L248.42666666666668,140.06732927453598L248.65333333333334,140.11075312224995L249.10666666666668,139.98802635843523L249.33333333333331,139.8160588903453L249.78666666666666,140.02711225182077L250.01333333333335,139.9474418894447L250.24,139.98825250937713L250.46666666666664,140.53205040477397L250.69333333333333,140.38705739130188L250.92,140.3298098964288L251.14666666666668,140.23845367578343L251.60000000000002,140.43695492919173L251.82666666666665,140.60891523379345L252.0533333333333,140.63537000320224L252.28,140.5950252689667L252.50666666666666,140.63276445115275L252.73333333333335,140.53408383049282L252.96,140.2179653906253L253.18666666666667,140.2044928352273L253.64,140.48508250866473L253.86666666666667,140.4404178468182L254.09333333333333,140.4071004950227L254.32000000000002,140.54197514076358L254.54666666666665,140.4487162456798L254.77333333333334,140.32658770195334L255,140.3153356112289L255.22666666666666,140.27974469060104L255.45333333333335,140.45758136691757L255.67999999999998,140.50719663620183L255.90666666666667,140.50291128782902L256.1333333333333,140.23224970238493L256.36,140.04871683137415L256.5866666666667,140.44811104697774L256.81333333333333,140.5215441850048L257.03999999999996,140.40576120560513L257.26666666666665,140.39602508273813L257.49333333333334,140.24017763842136L257.72,140.07713792183125L257.94666666666666,140.081714660059L258.17333333333335,140.50662600839345L258.4,140.1609571391269L258.62666666666667,140.4774105760897L258.85333333333335,140.66337150545496L259.08,140.44076349276156L259.3066666666667,139.95602636625358L259.53333333333336,139.89309646605903L259.76,139.90697338034565L259.9866666666667,140.1670342590312L260.2133333333333,140.5077631690551L260.6666666666667,140.30437602998418" style="fill: none;" fill="none"></path></g></g></g></g><g opacity="0.2"><g><g><g><path stroke="rgb(255, 112, 67)" stroke-width="2px" d="M22.893333333333334,29.36663208007812L23.12,30.328464577414763L23.573333333333334,33.125467751242894L23.799999999999997,33.29406127929687L24.026666666666667,32.71188520951705L24.253333333333334,31.45414983575992L24.48,32.00190596147016L24.706666666666667,33.005269553444606L24.93333333333333,31.061505681818204L25.16,32.01642456054688L25.386666666666667,33.29416004527698L25.613333333333333,33.03030672940341L25.84,32.54931640625L26.06666666666667,32.65553921786221L26.293333333333333,31.31780340021308L26.52,31.943634033203125L26.746666666666666,32.112968306107945L26.973333333333333,31.458298006924707L27.200000000000003,34.57377208362928L27.426666666666666,33.917620294744296L27.653333333333332,33.908089377663345L27.88,33.516037819602275L28.106666666666666,31.60852106267754L28.333333333333336,30.754639781605107L28.56,32.80670055042614L28.78666666666667,31.793114679509955L29.013333333333335,32.85509588068183L29.46666666666667,31.29197609641335L29.69333333333333,30.971381724964488L29.92,33.48759321732953L30.14666666666667,29.537052778764206L30.37333333333333,31.480075905539763L30.6,31.60506425337357L30.826666666666664,34.837921697443164L31.053333333333335,32.80082397460936L31.28,33.58502585671164L31.506666666666664,30.653058971058243L31.733333333333334,32.60126731178977L31.959999999999997,33.331740500710225L32.413333333333334,32.00328868519176L32.64,31.735089666193204L32.86666666666667,35.36399869051846L33.093333333333334,32.73914462002841L33.32,34.72982233220881L33.54666666666667,33.22225841175427L33.77333333333333,31.75183049982246L34,35.41259155273437L34.22666666666667,32.00546153675427L34.45333333333333,32.86393543590199L34.68,30.584367231889217L34.906666666666666,33.36364191228694L35.13333333333334,31.773805930397714L35.36,33.94166981090197L35.586666666666666,33.31934537020598L35.81333333333333,31.307136674360805L36.04,32.73346557617188L36.266666666666666,33.63747059215197L36.49333333333333,35.57530850497159L36.72,34.94740378639915L36.946666666666665,33.00255348899148L37.17333333333333,31.924522816051137L37.400000000000006,32.830503151633536L37.626666666666665,35.73708718039774L37.85333333333333,34.70947654030539L38.080000000000005,32.83558959960939L38.306666666666665,32.67588500976561L38.53333333333333,32.88052812056108L38.76,31.185901433771306L38.98666666666667,31.21444480202416L39.21333333333333,32.186894642223024L39.44,34.31293113014914L39.66666666666667,32.594551225142055L39.89333333333333,34.29540016867898L40.12,30.32160034179688L40.34666666666667,34.03969504616478L40.57333333333334,34.06211492365057L40.8,31.862250865589488L41.02666666666667,31.387680331143457L41.25333333333334,30.337353515624983L41.48,32.251536976207404L41.70666666666666,34.74182239879261L41.93333333333334,33.74873046874998L42.16,31.189802689985783L42.38666666666666,32.99988680752841L42.61333333333334,33.16556673916904L42.84,32.08516568270596L43.06666666666666,33.40966685901989L43.29333333333334,33.52216131036931L43.52,30.248118452592337L43.74666666666666,32.15672163529828L43.97333333333333,34.29258533824574L44.2,33.680581942471605L44.42666666666666,33.94566983309659L44.65333333333333,31.60387906161222L44.88,32.363883278586655L45.10666666666667,35.447209028764206L45.33333333333333,33.85184215198865L45.56,31.202099054509944L45.78666666666667,35.72251919833096L46.01333333333333,34.45703069513496L46.24,35.759507057883525L46.46666666666667,32.21306762695312L46.693333333333335,33.929274680397725L46.919999999999995,31.77079356800428L47.14666666666667,31.52624900124289L47.373333333333335,33.319937966086655L47.599999999999994,31.326198508522737L47.82666666666667,32.41919222745028L48.053333333333335,30.364464777166205L48.28,33.848335959694595L48.50666666666667,31.933263605291188L48.733333333333334,31.061653830788345L48.96,34.269622247869336L49.18666666666667,31.71543523615057L49.413333333333334,32.603687078302556L49.64,33.31998734907671L49.86666666666666,29.818486439098024L50.093333333333334,33.48300059925427L50.32,33.05425747958097L50.54666666666667,33.29149336381391L50.77333333333333,29.58431230024857L51,33.11875166459518L51.22666666666667,31.368124667080963L51.45333333333333,33.32546886097302L51.68,31.49390314275567L52.13333333333334,31.72629949396307L52.36,28.505343350497157L52.586666666666666,33.88216330788353L52.81333333333333,34.73895818536931L53.04,33.185073020241475L53.266666666666666,34.94034201882101L53.49333333333333,33.03889936967329L53.72,33.30862926136365L53.946666666666665,33.772829367897714L54.17333333333333,33.82250865589489L54.400000000000006,33.27085127397018L54.626666666666665,31.409063165838063L54.85333333333333,31.884423828124994L55.080000000000005,33.61919888583097L55.306666666666665,31.185407603870743L55.53333333333333,30.849652654474454L55.76,33.19529529918324L55.98666666666667,31.53508855646308L56.21333333333333,30.202982399680394L56.44,30.70224442915483L56.66666666666667,33.43969171697444L56.89333333333333,34.24265913529828L57.12,29.98935158469459L57.57333333333334,29.523324307528412L57.8,31.972918146306796L58.02666666666667,33.805273992365045L58.25333333333334,32.10906704989347L58.48,31.166296386718756L58.70666666666666,35.62612360174006L58.93333333333334,34.99204600941053L59.16,33.198455810546875L59.38666666666666,30.654491077769904L59.61333333333334,31.76615156693893L59.84,32.073856977982956L60.06666666666666,32.401266202059645L60.29333333333334,31.998893599076695L60.52,31.637212579900563L60.74666666666666,33.10472689541902L60.97333333333333,33.196875554865045L61.2,34.96937921697443L61.42666666666666,31.715336470170456L61.65333333333333,33.259789484197455L61.88,34.0652754350142L62.10666666666667,31.51775512695312L62.33333333333333,31.856571821732956L62.56,35.17436800870027L62.78666666666667,31.375383966619296L63.01333333333333,32.1756847034801L63.24,30.72293590198865L63.46666666666667,30.367921586470175L63.693333333333335,30.53612005060367L63.919999999999995,33.433074396306836L64.14666666666668,31.914991898970158L64.37333333333333,34.3795487837358L64.6,31.47014992453836L64.82666666666667,30.605750066583795L65.05333333333333,31.41454467773437L65.28,31.492372270063925L65.50666666666667,30.680960360440338L65.73333333333333,32.743342174183226L65.96,33.54502563476561L66.18666666666667,31.30032182173295L66.41333333333334,33.911496803977286L66.64,34.219696044921875L66.86666666666666,34.08843605735086L67.54666666666667,31.61484208540483L67.77333333333334,32.00857266512784L68,34.055793900923305L68.22666666666667,30.06377175071023L68.45333333333333,33.22670288085939L68.68,31.473409201882106L68.90666666666667,31.514199551669037L69.36,32.91879993785511L69.58666666666667,31.815682705965912L69.81333333333333,30.689750532670445L70.04,31.706052468039786L70.26666666666668,33.271443869850856L70.72,30.560712779651993L70.94666666666666,31.73183038884943L71.17333333333333,33.89352139559659L71.4,32.625316827947444L71.62666666666667,30.859726784446025L71.85333333333332,30.594391978870732L72.08,33.58379128196023L72.30666666666666,33.56714921431109L72.53333333333333,32.466846812855096L72.76,27.945488392223012L72.98666666666666,32.51578535600143L73.21333333333334,35.68143255060369L73.44,28.59181296608665L73.89333333333333,33.530605801669026L74.12,31.047184614701706L74.34666666666666,31.703287020596605L74.57333333333334,31.292074862393463L74.80000000000001,32.38650068803267L75.02666666666666,34.648834228515625L75.25333333333333,29.837597656249983L75.48,32.11988192471591L75.70666666666666,32.49701981977984L75.93333333333334,32.3562782981179L76.16000000000001,31.921609219637787L76.38666666666667,31.626447088068204L76.61333333333333,31.837114923650546L76.83999999999999,28.487170410156267L77.06666666666666,32.855194646661914L77.29333333333334,32.20482066761363L77.52,31.525113192471593L77.74666666666667,31.58358265269885L77.97333333333334,30.853850208629268L78.19999999999999,33.34734552556819L78.42666666666666,32.851342773437494L78.65333333333334,35.85214954723011L78.88,33.80636041814631L79.10666666666667,31.2539511940696L79.33333333333334,33.258357377485794L79.56,32.35731534090908L79.78666666666666,32.93247902610085L80.01333333333334,34.662217018821025L80.24,29.103815806995726L80.46666666666667,31.077011940696025L80.69333333333334,29.300261341441768L80.92,34.61698219992897L81.14666666666668,31.11508622602983L81.37333333333333,32.62240323153409L81.6,33.12013438831676L81.82666666666667,32.74205821644176L82.05333333333334,35.5561972878196L82.28,26.886322021484375L82.50666666666667,32.229018332741475L82.73333333333332,31.904028875177545L82.96,29.376261763139212L83.41333333333333,32.83321921608666L83.64,34.73194580078123L83.86666666666667,32.873071289062494L84.09333333333333,31.528174937855113L84.32,31.216370738636357L84.54666666666667,32.149511718750006L84.77333333333333,33.843940873579555L85,31.577557927911954L85.22666666666667,33.842113702947444L85.45333333333333,32.86265147816053L85.68,33.71124877929688L85.90666666666667,31.780917080965907L86.13333333333333,32.85391068892045L86.36,33.11435657848011L86.58666666666667,31.211383056640642L86.81333333333333,31.69726229580965L87.04,29.020753617720175L87.26666666666668,34.110115189985805L87.49333333333333,31.218790505149144L87.72,30.190093439275586L87.94666666666666,32.56823009144176L88.4,33.13667768998579L88.85333333333332,32.39114268909802L89.08,34.249227072975856L89.30666666666666,30.32653864080254L89.53333333333333,32.28235196200285L89.76,34.85056374289772L89.98666666666666,32.55390902432529L90.21333333333334,30.880368874289786L90.44,30.747923694957393L90.66666666666666,32.544229958274144L90.89333333333333,33.47687710848723L91.12,32.395043945312494L91.34666666666666,31.549459006569606L91.57333333333334,30.432563920454555L91.80000000000001,32.34314242276278L92.02666666666666,30.985159579190338L92.48,35.450270774147725L92.70666666666666,29.90174616033383L92.93333333333334,34.546562056107945L93.16000000000001,31.15814819335938L93.38666666666667,31.737064985795456L93.83999999999999,32.09815340909091L94.06666666666666,30.53626819957387L94.29333333333334,31.77000344016335L94.52,31.74639837091621L94.74666666666667,31.451828835227275L94.97333333333334,32.22314175692472L95.19999999999999,27.564646772904837L95.42666666666666,29.928857421874994L95.65333333333334,31.986399702592337L95.88,30.553700395063913L96.10666666666667,34.168683416193204L96.33333333333334,30.404711914062517L96.56,34.62384643554688L96.78666666666666,29.83893099698153L97.01333333333334,30.16145130504262L97.24,32.44852572354404L97.46666666666667,31.530100874467337L97.69333333333334,29.817153098366475L97.92,30.766096635298283L98.14666666666668,31.836472944779842L98.37333333333333,34.675204745205974L98.6,33.42823486328123L98.82666666666667,31.713904363458795L99.05333333333334,30.411477383700287L99.28,34.69041470614346L99.50666666666667,30.71883711381392L99.73333333333332,35.454517711292596L99.96,32.47973577325996L100.18666666666667,32.140375865589476L100.41333333333333,34.655599698153395L100.64,33.09015891335227L100.86666666666667,33.984682395241464L101.09333333333333,30.0614013671875L101.32,30.157105601917607L101.54666666666667,31.7236328125L101.77333333333333,34.125226384943204L102,34.03258389559659L102.22666666666667,31.614298872514212L102.45333333333333,35.45273992365057L102.68,30.376366077769887L102.90666666666667,32.78857699307528L103.13333333333333,35.23984985351561L103.36,30.744368119673283L103.58666666666667,32.22442571466621L103.81333333333333,31.36284068714488L104.04,31.59099010120738L104.26666666666668,31.757509543678964L104.49333333333333,33.934459894353694L104.72,31.85425082120028L104.94666666666666,33.88354603160511L105.17333333333333,31.425310169566757L105.4,32.73756436434658L105.62666666666667,34.989329944957404L105.85333333333332,32.20324041193183L106.08,33.41396317915482L106.30666666666666,31.439285555752832L106.76,29.59463334517045L106.98666666666666,34.38695623224433L107.21333333333334,34.431549072265625L107.44,32.13924005681818L107.66666666666666,32.64413174715909L107.89333333333333,31.67064486416902L108.12,30.819677179509938L108.34666666666666,30.281155672940343L108.57333333333334,32.82215742631391L108.80000000000001,30.871677468039763L109.02666666666666,34.681575150923294L109.25333333333333,32.85573785955256L109.48,31.85958418412642L109.70666666666666,31.285111860795467L109.93333333333334,32.42561201615766L110.16000000000001,29.81601728959518L110.38666666666667,34.766908957741464L110.61333333333333,32.521168101917596L110.83999999999999,28.409194668856543L111.06666666666666,33.36033325195311L111.29333333333334,33.15969016335228L111.52,31.74150945490058L111.74666666666667,32.77830533114346L111.97333333333334,34.73876065340909L112.42666666666666,30.204315740411914L112.65333333333334,32.02916537198152L112.88,32.436229359019904L113.10666666666667,32.2241787997159L113.33333333333334,33.49811179421164L113.56,33.092874977805394L113.78666666666666,31.57894065163353L114.01333333333334,34.188535378196036L114.24,30.07690762606535L114.46666666666667,30.49957663796164L114.69333333333334,32.67158868963068L114.92,34.18774525035511L115.14666666666668,31.45839677290482L115.37333333333333,34.74962491122159L115.6,32.63460083007814L115.82666666666667,33.866064453125006L116.05333333333334,30.99888805042613L116.28,33.22606090198863L116.50666666666667,31.294050181995743L116.73333333333332,33.32532071200285L116.96,30.98501143022017L117.18666666666667,32.55677323774859L117.64,33.93213889382102L117.86666666666667,32.16852416992188L118.09333333333333,31.323037997159105L118.32,30.87834417169742L118.54666666666667,31.837016157670462L118.77333333333333,30.606787109375006L119,33.42008666992186L119.22666666666667,31.126691228693204L119.45333333333333,36.50696799538352L119.68,33.64631014737216L119.90666666666667,31.78738625266334L120.13333333333333,33.20260398171166L120.36,33.30018477006391L120.81333333333333,29.31403919566762L121.26666666666668,32.43474786931819L121.49333333333333,29.952561257102275L121.72,33.70226107510652L121.94666666666666,33.29924649325284L122.17333333333333,35.59837036132811L122.4,33.27248091264204L122.62666666666667,31.979239169034088L122.85333333333332,33.295444003018474L123.08,30.219130637428975L123.30666666666666,31.337210915305405L123.53333333333333,31.636126154119296L123.76,33.57801347212359L123.98666666666666,32.282401344992905L124.21333333333334,31.230049826882095L124.44,34.57890791459516L124.66666666666666,31.187234774502855L124.89333333333333,32.426550292968756L125.12,33.03618330522016L125.34666666666666,32.03311601118608L125.57333333333334,31.566051691228694L125.80000000000001,34.083744673295456L126.02666666666666,33.693569668856526L126.25333333333333,31.455680708451695L126.48,33.802459161931836L126.70666666666666,30.64782437411222L126.93333333333334,31.41785333806817L127.16000000000001,34.722118585759944L127.38666666666667,28.696060458096582L127.61333333333333,31.76802812056107L127.83999999999999,31.16066672585228L128.06666666666666,33.78932328657672L128.29333333333335,32.099585515802545L128.51999999999998,33.049022882634944L128.74666666666667,34.13342396129261L128.97333333333333,30.65152809836647L129.2,33.79924926757812L129.42666666666668,32.96304709694601L129.65333333333334,35.149380215731526L129.88,29.221742387251425L130.10666666666665,29.8249062278054L130.33333333333334,28.967321222478688L130.56,31.523730468750017L130.78666666666666,30.99785100763492L131.01333333333335,34.02616410688921L131.24,34.42330211292614L131.46666666666667,34.367301802201695L131.69333333333333,30.61454023881393L131.92,33.423938543146306L132.14666666666668,31.510643976384955L132.37333333333333,32.72724331942473L132.6,35.57990112304688L132.82666666666668,29.581448086825276L133.05333333333334,34.11391768022017L133.28,32.592427756569606L133.50666666666666,27.934426602450287L133.73333333333332,33.210258345170445L133.96,31.744768732244296L134.18666666666667,29.099963933771306L134.41333333333333,31.89612759676848L134.64,33.1945545543324L135.09333333333333,30.420514470880704L135.32,32.21158613725143L135.54666666666668,32.11578313654121L135.77333333333334,33.520136607776976L136.22666666666666,31.98704168146307L136.45333333333335,32.13603016246449L136.90666666666667,33.93070678710936L137.13333333333333,32.93080000443891L137.36,33.05480069247159L137.58666666666667,35.31017123135652L137.81333333333333,33.32853060635654L138.04,31.41296442205254L138.26666666666665,31.850991543856537L138.49333333333334,34.17786865234373L138.72,32.14220303622159L138.9466666666667,32.28738902698865L139.17333333333335,32.87978737571024L139.39999999999998,32.14877097389916L139.62666666666667,31.577409778941757L139.85333333333332,34.67243929776279L140.08,31.89731278852983L140.30666666666667,30.707133345170462L140.53333333333336,32.129659756747145L140.76,33.733569890802556L140.98666666666665,35.256047474254274L141.21333333333334,31.84407792524857L141.44,33.074306973544026L141.66666666666669,31.984375L141.89333333333332,34.43436390269886L142.12,30.948517400568164L143.02666666666667,33.75263172496449L143.25333333333333,34.5149569424716L143.48,33.271838933771306L143.70666666666665,30.924912331321025L143.93333333333334,34.18241188742897L144.16,29.63028786399147L144.38666666666668,35.50666614879262L144.61333333333332,32.54442749023437L144.84,33.11623313210228L145.06666666666666,31.002838689630664L145.29333333333335,30.586638849431836L145.52,36.37951049804687L145.74666666666667,33.70591541637074L145.97333333333333,31.261605557528412L146.2,34.34107943448154L146.42666666666668,35.16844204989346L146.65333333333334,32.00309115323154L146.88,37.81067893288352L147.10666666666668,36.53911632191051L147.56,34.35599309747869L147.78666666666666,34.65555031516334L148.01333333333335,34.13085604580965L148.24,37.269243829900546L148.46666666666664,35.41348044655541L148.69333333333333,36.07699030095881L149.14666666666668,37.231613991477275L149.37333333333333,38.10213734019885L149.60000000000002,39.11024169921873L149.82666666666665,36.470967795632106L150.0533333333333,34.94498401988636L150.28,35.85007546164772L150.50666666666666,38.51720137162641L150.73333333333335,37.51610939719461L150.96,38.952660577947455L151.18666666666667,37.41442982066761L151.41333333333333,39.07053777521307L151.64,40.51212602095171L151.86666666666667,41.044178355823846L152.09333333333333,41.932924027876425L152.32000000000002,38.68673317649149L152.54666666666665,43.20399280894887L152.77333333333334,42.29070379083808L153,42.04670243696734L153.22666666666666,41.971343994140625L153.45333333333335,43.306709428267055L153.67999999999998,42.82784257368607L153.90666666666667,43.176733398437506L154.13333333333333,43.10379472212358L154.36,44.45802445845172L154.58666666666667,43.25144986239346L154.81333333333333,42.69337269176137L155.04,45.159213534268474L155.26666666666665,46.555517578125006L155.49333333333334,46.10010764382102L155.72,49.257557262073846L155.9466666666667,46.82667957652697L156.17333333333335,45.50588212446732L156.39999999999998,48.76955455433239L156.62666666666667,49.67074473987927L156.85333333333332,48.35518188476564L157.30666666666667,51.90172008167613L157.53333333333336,51.69608931107955L157.76,50.04575916637074L157.98666666666665,51.56453302556818L158.21333333333334,50.25173561789774L158.44,53.397037020596585L158.66666666666669,53.347357732599434L158.89333333333332,54.480401056463066L159.12,55.62016046697444L159.34666666666666,54.39279563210226L159.57333333333332,58.2317305131392L159.8,57.95854381214488L160.02666666666667,59.76438099254261L160.25333333333333,57.77948109019887L160.48,59.10630326704545L160.70666666666665,59.25099542791193L161.16,63.5986738725142L161.38666666666668,63.4524014559659L161.61333333333332,65.86179754083807L161.84,63.41674693714488L162.06666666666666,64.58139537464488L162.29333333333335,65.15354669744319L162.52,65.82298251065342L162.74666666666667,68.43198464133523L162.97333333333333,67.72106711647727L163.2,68.52561479048295L163.42666666666668,69.03988924893467L163.65333333333334,71.84829989346592L163.88,70.56147793856533L164.10666666666668,74.01068226207387L164.33333333333331,72.4856367631392L164.56,76.18392888849432L164.78666666666666,72.76632967862217L165.01333333333335,77.0398348721591L165.24,76.2562255859375L165.46666666666664,78.26996515447443L165.69333333333333,75.26313365589489L165.92,78.49475652521306L166.14666666666668,79.00863591974432L166.37333333333333,79.97229558771306L166.60000000000002,80.71007745916194L166.82666666666665,82.39630903764206L167.0533333333333,83.88856423117899L167.28,83.58110573508523L167.50666666666666,83.07334983132101L167.73333333333335,84.41785111860796L167.96,85.5220547762784L168.18666666666667,86.27149103338068L168.41333333333333,88.91693781072443L168.64,88.72523304332387L168.86666666666667,88.70478848544033L169.09333333333333,90.00474631569602L169.32000000000002,92.12851118607955L169.54666666666665,89.17767999822443L169.77333333333334,92.87034246271307L170,91.62440962357955L170.22666666666666,93.82037242542614L170.45333333333335,95.43628262606533L170.67999999999998,95.31993630149148L170.90666666666667,96.6867587002841L171.13333333333333,95.74364235617898L171.36,98.04538352272728L171.81333333333333,98.29219970703126L172.04,96.85594482421875L172.26666666666665,99.56084872159092L172.49333333333334,99.5810957475142L172.72,100.00174005681818L172.9466666666667,101.24717906605113L173.17333333333335,102.11651722301136L173.39999999999998,102.510791015625L173.62666666666667,101.70249023437499L173.85333333333332,103.75632879083807L174.08,102.580322265625L174.30666666666667,103.71879771839488L174.53333333333336,104.67258078835228L174.76,104.9914961381392L174.98666666666665,108.26460071910512L175.44,106.26212047230113L175.66666666666669,106.38992365056818L175.89333333333332,106.30725652521308L176.12,109.37186612215909L176.34666666666666,106.93195134943183L176.57333333333332,108.51912064985795L176.8,108.4608487215909L177.02666666666667,109.67596657492898L177.25333333333333,110.87419544566761L177.48,110.25789572975852L177.70666666666665,110.6409102006392L177.93333333333334,111.36911177201705L178.16,110.8211581143466L178.38666666666668,114.25159690163352L178.61333333333332,112.10442449396307L178.84,112.91045365767046L179.06666666666666,113.56961780894886L179.29333333333335,115.23402210582387L179.52,113.75835959694602L179.74666666666667,116.19432373046875L179.97333333333333,114.24853515625L180.2,114.74779718572444L180.42666666666668,115.73812366832387L180.65333333333334,117.75097434303977L180.88,116.19047185724432L181.10666666666668,118.13043323863636L181.33333333333331,115.91965553977272L181.78666666666666,119.13468572443182L182.01333333333335,119.30614346590909L182.24,117.93546919389203L182.46666666666664,118.72480690696023L182.69333333333333,118.93991921164772L182.92,119.0694014115767L183.14666666666668,118.58070734197443L183.37333333333333,120.19246937144887L183.60000000000002,119.38258833451705L183.82666666666665,120.32688987038352L184.0533333333333,120.0442216352983L184.28,119.16885875355113L184.50666666666666,118.38406427556819L184.73333333333335,119.04599387428978L184.96,121.9940596147017L185.18666666666667,121.64245272549715L185.41333333333333,122.65490278764204L185.64,122.86833607066762L185.86666666666667,123.11900412819602L186.09333333333333,122.5075439453125L186.32000000000002,122.04680064808238L186.54666666666665,124.53511075106533L186.77333333333334,123.37056107954547L187,124.98765647194602L187.22666666666666,123.10191761363637L187.45333333333335,123.85234153053977L187.67999999999998,123.69362460049716L187.90666666666667,124.51930819424716L188.13333333333333,125.08197798295454L188.36,126.6070234818892L188.58666666666667,125.4612393465909L188.81333333333333,126.30687366832387L189.04,126.6142333984375L189.26666666666665,124.86311257102273L189.49333333333334,124.50844393643466L189.72,124.22765225497159L189.9466666666667,125.8486982865767L190.17333333333335,124.84740878018465L190.39999999999998,125.50084450461648L190.62666666666667,127.53720148259944L190.85333333333332,127.13769309303977L191.08,126.77453058416194L191.30666666666667,127.04238392223012L191.53333333333336,126.62144331498578L191.76,127.76179532137783L191.98666666666665,127.36801535866478L192.21333333333334,128.90115966796876L192.44,128.61967662464488L192.66666666666669,128.16337779651988L193.12,127.9368086381392L193.34666666666666,127.76347434303977L193.57333333333332,128.75034401633522L193.8,128.54915771484374L194.02666666666667,128.53671320134944L194.25333333333333,129.4396317915483L194.48,129.04318514737216L194.70666666666665,128.00871027166193L194.93333333333334,129.3832364169034L195.16,128.55409601384943L195.38666666666668,130.24299427379262L195.61333333333332,129.81099187677557L195.84,130.13820356889204L196.06666666666666,129.05908647017046L196.29333333333335,130.62502108487217L196.52,128.40920632102274L196.74666666666667,131.85831187855115L196.97333333333333,130.28595747514203L197.2,129.92901722301136L197.42666666666668,129.25691472833807L197.65333333333334,129.22195157137784L197.88,129.88348610617896L198.10666666666668,130.16615434126422L198.33333333333331,130.84783713600854L198.56,130.30778475674717L198.78666666666666,130.55855158025568L199.01333333333335,130.31934037642046L199.24,130.13741344105114L199.69333333333333,131.82749689275568L199.92,132.21110395951703L200.14666666666668,132.01139914772727L200.37333333333333,130.3861061789773L200.60000000000002,129.62866987748578L200.82666666666665,130.3246737393466L201.0533333333333,132.7219216086648L201.28,131.81969438032672L201.50666666666666,132.79145285866477L201.73333333333335,131.72349631569602L201.96,132.01712757457386L202.18666666666667,131.4197909268466L202.41333333333333,132.29041304154828L202.64,131.69801469282672L202.86666666666667,132.4396484375L203.09333333333333,132.68350164240056L203.32000000000002,131.83006480823863L203.54666666666665,131.0729248046875L203.77333333333334,132.60518022017047L204,131.6124833540483L204.22666666666666,130.896923828125L204.45333333333335,131.65870583274148L204.67999999999998,132.3332774769176L204.90666666666667,132.83125554865057L205.13333333333333,132.85357666015625L205.36,133.7708163174716L205.58666666666667,132.1462147105824L205.81333333333333,133.38750554865055L206.04,133.41417236328124L206.26666666666665,132.8431074662642L206.49333333333334,132.70523015802556L206.72,133.18394886363637L207.17333333333335,132.73772416548297L207.39999999999998,132.83115678267046L207.62666666666667,133.14029430042615L207.85333333333332,133.15343017578124L208.08,132.7374278675426L208.30666666666667,133.50760498046876L208.53333333333336,132.94710804332385L208.76,133.24646772904828L208.98666666666665,132.72142777876422L209.21333333333334,134.65793235085226L209.44,133.68409978693182L209.66666666666669,133.76103848544034L209.89333333333332,135.14899680397727L210.12,133.22523304332387L210.34666666666666,134.121435546875L210.57333333333332,133.2886408025568L210.8,133.9237060546875L211.02666666666667,134.6943769975142L211.25333333333333,135.4431218927557L211.48,134.88825461647727L211.70666666666665,134.27699196555398L211.93333333333334,134.40291859019885L212.16,135.81359308416194L212.38666666666668,135.29447909268467L212.61333333333332,135.12726828835227L212.84,136.4709794477983L213.06666666666666,135.84332164417614L213.29333333333335,135.40756613991476L213.52,135.35946710759941L213.74666666666667,134.79176025390626L213.97333333333333,134.57733931107953L214.2,135.98337180397726L214.42666666666668,134.71294500177555L214.65333333333334,135.58494984019887L214.88,135.90742076526988L215.10666666666668,135.25220725319602L215.33333333333331,134.93082275390626L215.56,136.26189186789773L216.01333333333335,136.176953125L216.24,134.99195889559658L216.46666666666664,136.28974387428977L216.69333333333333,136.3790283203125L216.92,134.7870194868608L217.14666666666668,135.4584306196733L217.37333333333333,137.36905850497158L217.60000000000002,136.39295432350852L218.0533333333333,137.82298694957387L218.28,135.13428067294035L218.50666666666666,135.5229248046875L218.73333333333335,136.37260853160512L218.96,137.75098655007102L219.41333333333333,135.99907559481534L219.64,136.20460759943182L219.86666666666667,137.8812588778409L220.09333333333333,137.01359974254262L220.32000000000002,136.51167103160512L220.54666666666665,137.29794699928976L220.77333333333334,137.08421741832387L221,137.6798750443892L221.22666666666666,136.09527365944604L221.45333333333335,137.2207120028409L221.67999999999998,137.4044167258523L221.90666666666667,137.59523259943182L222.13333333333333,136.62169633345172L222.36,136.28480557528408L222.58666666666667,137.22890957919034L222.81333333333333,137.319873046875L223.04,137.5314297762784L223.26666666666665,137.98595081676137L223.49333333333334,136.94436479048295L223.72,136.4390780362216L223.9466666666667,137.88807373046876L224.17333333333335,137.05034068714488L224.39999999999998,138.75701682350854L224.62666666666667,138.03800048828126L224.85333333333332,137.40510808771307L225.08,137.87483908913353L225.30666666666667,138.24955721768467L225.53333333333336,137.21656383167613L225.76,138.2051125266335L225.98666666666665,138.03296342329546L226.21333333333334,137.7704434481534L226.44,138.53736128373578L226.66666666666669,137.8803699840199L226.89333333333332,138.73133766867898L227.12,139.00679598721592L227.34666666666666,137.7260975230824L227.57333333333332,137.5088123668324L227.8,138.2325694691051L228.02666666666667,138.24935968572441L228.25333333333333,138.458447265625L228.48,139.25351340553976L228.70666666666665,138.5995838512074L228.93333333333334,139.31622980291195L229.16,138.99198109019886L229.38666666666668,138.74783158735795L229.61333333333332,137.9450617009943L229.84,139.31336558948863L230.06666666666666,139.06615434126422L230.29333333333335,138.8250665838068L230.74666666666667,138.83602960759941L230.97333333333333,138.38081720525568L231.2,139.76324462890625L231.42666666666668,139.05548761541195L231.88,138.89765957919033L232.10666666666668,138.82615300958807L232.33333333333331,139.47257634943182L232.56,138.89420276988636L232.78666666666666,139.20245139382104L233.01333333333335,138.52195379083807L233.24,139.62052778764206L233.46666666666664,139.995937278054L233.69333333333333,138.56807750355114L234.14666666666668,139.05509255149147L234.37333333333333,139.7794422496449L234.60000000000002,139.9925792347301L234.82666666666665,138.6989424272017L235.0533333333333,139.43060080788354L235.28,138.54160822088068L235.50666666666666,139.33302001953126L235.73333333333335,138.98911687677557L235.96,139.42645263671875L236.18666666666667,139.46981090198864L236.64,140.3813221324574L236.86666666666667,139.45983553799715L237.09333333333333,138.94644997336647L237.32000000000002,139.1776611328125L237.54666666666665,139.50260120738636L238,140.3582108931108L238.22666666666666,139.86507235440342L238.45333333333335,139.8998379794034L238.90666666666667,140.38675426136365L239.13333333333333,138.55820090553976L239.36,140.48818692294034L239.58666666666667,140.669521262429L239.81333333333333,140.12660466974432L240.04,139.7127752130682L240.26666666666665,139.49509499289772L240.49333333333334,139.86843039772728L240.72,140.1468516956676L240.9466666666667,139.84354137073865L241.17333333333335,139.49677401455966L241.39999999999998,139.47781094637784L241.62666666666667,140.32522305575284L241.85333333333332,139.87702303799716L242.08,140.3329268022017L242.30666666666667,140.31505015980113L242.53333333333336,140.40729758522727L242.76,140.11435768821022L242.98666666666665,139.60749067826703L243.21333333333334,140.07969082919033L243.44,140.75347234552555L243.66666666666669,140.80473188920456L243.89333333333332,140.47593994140624L244.12,140.7690773703835L244.34666666666666,140.63228648792614L244.57333333333332,141.0101651278409L244.8,139.30042724609376L245.02666666666667,140.3147538618608L245.25333333333333,140.59050847833805L245.48,139.99228293678976L245.70666666666665,139.49825550426135L245.93333333333334,139.9830977006392L246.16,139.3718350497159L246.38666666666668,140.43840886896305L246.61333333333332,140.4806807084517L246.84,140.46280406605115L247.06666666666666,141.105869362571L247.29333333333335,140.4849276455966L247.52,140.05509810014206L247.74666666666667,139.64363902698864L247.97333333333333,140.93806596235794L248.2,139.52018155184658L248.42666666666668,140.0778142755682L248.65333333333334,140.17588889382102L249.10666666666668,139.80393621271307L249.33333333333331,139.5581076882102L249.78666666666666,140.3436922940341L250.01333333333335,139.8279363458807L250.24,140.04946843927559L250.46666666666664,141.34774724786934L250.69333333333333,140.16956787109376L250.92,140.24393865411932L251.14666666666668,140.10141934481533L251.60000000000002,140.734706809304L251.82666666666665,140.866855690696L252.0533333333333,140.67505215731535L252.28,140.53450816761364L252.50666666666666,140.68937322443182L252.73333333333335,140.38606289950283L252.96,139.74378773082387L253.18666666666667,140.18428400213068L253.64,140.90596701882103L253.86666666666667,140.37342085404828L254.09333333333333,140.35712446732953L254.32000000000002,140.744287109375L254.54666666666665,140.30882790305398L254.77333333333334,140.14339488636364L255,140.29845747514204L255.22666666666666,140.22635830965908L255.45333333333335,140.72433638139205L255.67999999999998,140.58161954012783L255.90666666666667,140.4964832652699L256.1333333333333,139.82625732421874L256.36,139.77341752485796L256.5866666666667,141.04720237038353L256.81333333333333,140.63169389204546L257.03999999999996,140.23208673650566L257.26666666666665,140.3814208984375L257.49333333333334,140.00640647194604L257.72,139.83257834694604L257.94666666666666,140.08857976740057L258.17333333333335,141.14399303089488L258.4,139.6424538352273L258.62666666666667,140.9520907315341L258.85333333333335,140.94231289950284L259.08,140.10685147372158L259.3066666666667,139.22892067649147L259.53333333333336,139.79870161576704L259.76,139.92778875177555L259.9866666666667,140.55712557705965L260.2133333333333,141.0188565340909L260.6666666666667,139.99929532137784" style="fill: none;" fill="none"></path></g></g></g></g></g></g><g transform="translate(58, 178)" clip-path="url(#clip_1)"><clipPath id="clip_1"><rect width="272" height="22"></rect></clipPath><g><g><line x1="0" y1="0" x2="0" y2="5" style="visibility: inherit;" fill="rgb(0, 0, 0)" stroke="rgb(204, 204, 204)" stroke-width="1px"></line><line x1="22.666666666666664" y1="0" x2="22.666666666666664" y2="5" style="visibility: inherit;" fill="rgb(0, 0, 0)" stroke="rgb(204, 204, 204)" stroke-width="1px"></line><line x1="45.33333333333333" y1="0" x2="45.33333333333333" y2="5" style="visibility: inherit;" fill="rgb(0, 0, 0)" stroke="rgb(204, 204, 204)" stroke-width="1px"></line><line x1="68" y1="0" x2="68" y2="5" style="visibility: inherit;" fill="rgb(0, 0, 0)" stroke="rgb(204, 204, 204)" stroke-width="1px"></line><line x1="90.66666666666666" y1="0" x2="90.66666666666666" y2="5" style="visibility: inherit;" fill="rgb(0, 0, 0)" stroke="rgb(204, 204, 204)" stroke-width="1px"></line><line x1="113.33333333333334" y1="0" x2="113.33333333333334" y2="5" style="visibility: inherit;" fill="rgb(0, 0, 0)" stroke="rgb(204, 204, 204)" stroke-width="1px"></line><line x1="136" y1="0" x2="136" y2="5" style="visibility: inherit;" fill="rgb(0, 0, 0)" stroke="rgb(204, 204, 204)" stroke-width="1px"></line><line x1="158.66666666666669" y1="0" x2="158.66666666666669" y2="5" style="visibility: inherit;" fill="rgb(0, 0, 0)" stroke="rgb(204, 204, 204)" stroke-width="1px"></line><line x1="181.33333333333331" y1="0" x2="181.33333333333331" y2="5" style="visibility: inherit;" fill="rgb(0, 0, 0)" stroke="rgb(204, 204, 204)" stroke-width="1px"></line><line x1="204" y1="0" x2="204" y2="5" style="visibility: inherit;" fill="rgb(0, 0, 0)" stroke="rgb(204, 204, 204)" stroke-width="1px"></line><line x1="226.66666666666669" y1="0" x2="226.66666666666669" y2="5" style="visibility: inherit;" fill="rgb(0, 0, 0)" stroke="rgb(204, 204, 204)" stroke-width="1px"></line><line x1="249.33333333333331" y1="0" x2="249.33333333333331" y2="5" style="visibility: inherit;" fill="rgb(0, 0, 0)" stroke="rgb(204, 204, 204)" stroke-width="1px"></line><line x1="272" y1="0" x2="272" y2="5" style="visibility: inherit;" fill="rgb(0, 0, 0)" stroke="rgb(204, 204, 204)" stroke-width="1px"></line></g><g transform="translate(0, 8)"><text x="0" y="0" dx="0em" dy="0.95em" style="text-anchor: middle; visibility: hidden; font-family: &quot;Helvetica Neue&quot;, sans-serif; font-size: 12px; font-weight: 200;" fill="rgb(50, 49, 63)" stroke="none" stroke-width="1px">-100</text><text x="22.666666666666664" y="0" dx="0em" dy="0.95em" style="text-anchor: middle; visibility: inherit; font-family: &quot;Helvetica Neue&quot;, sans-serif; font-size: 12px; font-weight: 200;" fill="rgb(50, 49, 63)" stroke="none" stroke-width="1px">0</text><text x="45.33333333333333" y="0" dx="0em" dy="0.95em" style="text-anchor: middle; visibility: hidden; font-family: &quot;Helvetica Neue&quot;, sans-serif; font-size: 12px; font-weight: 200;" fill="rgb(50, 49, 63)" stroke="none" stroke-width="1px">100</text><text x="68" y="0" dx="0em" dy="0.95em" style="text-anchor: middle; visibility: inherit; font-family: &quot;Helvetica Neue&quot;, sans-serif; font-size: 12px; font-weight: 200;" fill="rgb(50, 49, 63)" stroke="none" stroke-width="1px">200</text><text x="90.66666666666666" y="0" dx="0em" dy="0.95em" style="text-anchor: middle; visibility: hidden; font-family: &quot;Helvetica Neue&quot;, sans-serif; font-size: 12px; font-weight: 200;" fill="rgb(50, 49, 63)" stroke="none" stroke-width="1px">300</text><text x="113.33333333333334" y="0" dx="0em" dy="0.95em" style="text-anchor: middle; visibility: inherit; font-family: &quot;Helvetica Neue&quot;, sans-serif; font-size: 12px; font-weight: 200;" fill="rgb(50, 49, 63)" stroke="none" stroke-width="1px">400</text><text x="136" y="0" dx="0em" dy="0.95em" style="text-anchor: middle; visibility: hidden; font-family: &quot;Helvetica Neue&quot;, sans-serif; font-size: 12px; font-weight: 200;" fill="rgb(50, 49, 63)" stroke="none" stroke-width="1px">500</text><text x="158.66666666666669" y="0" dx="0em" dy="0.95em" style="text-anchor: middle; visibility: inherit; font-family: &quot;Helvetica Neue&quot;, sans-serif; font-size: 12px; font-weight: 200;" fill="rgb(50, 49, 63)" stroke="none" stroke-width="1px">600</text><text x="181.33333333333331" y="0" dx="0em" dy="0.95em" style="text-anchor: middle; visibility: hidden; font-family: &quot;Helvetica Neue&quot;, sans-serif; font-size: 12px; font-weight: 200;" fill="rgb(50, 49, 63)" stroke="none" stroke-width="1px">700</text><text x="204" y="0" dx="0em" dy="0.95em" style="text-anchor: middle; visibility: inherit; font-family: &quot;Helvetica Neue&quot;, sans-serif; font-size: 12px; font-weight: 200;" fill="rgb(50, 49, 63)" stroke="none" stroke-width="1px">800</text><text x="226.66666666666669" y="0" dx="0em" dy="0.95em" style="text-anchor: middle; visibility: hidden; font-family: &quot;Helvetica Neue&quot;, sans-serif; font-size: 12px; font-weight: 200;" fill="rgb(50, 49, 63)" stroke="none" stroke-width="1px">900</text><text x="249.33333333333331" y="0" dx="0em" dy="0.95em" style="text-anchor: middle; visibility: inherit; font-family: &quot;Helvetica Neue&quot;, sans-serif; font-size: 12px; font-weight: 200;" fill="rgb(50, 49, 63)" stroke="none" stroke-width="1px">1k</text><text x="272" y="0" dx="0em" dy="0.95em" style="text-anchor: middle; visibility: hidden; font-family: &quot;Helvetica Neue&quot;, sans-serif; font-size: 12px; font-weight: 200;" fill="rgb(50, 49, 63)" stroke="none" stroke-width="1px">1.1k</text></g><line x1="0" y1="0" x2="272" y2="0" fill="rgb(0, 0, 0)" stroke="rgb(204, 204, 204)" stroke-width="1px"></line></g></g></g></g></svg>